<svg width="196" height="42" viewBox="0 0 196 42" fill="none" xmlns="http://www.w3.org/2000/svg">
<foreignObject x="-2.94186" y="-2.94186" width="201.884" height="47.5419"><div xmlns="http://www.w3.org/1999/xhtml" style="backdrop-filter:blur(1.47px);clip-path:url(#bgblur_0_389_72_clip_path);height:100%;width:100%"></div></foreignObject><path id="Vector 1" opacity="0.6" data-figma-bg-blur-radius="2.9324" d="M189.52 0H6.4721C2.89766 0 0 2.89767 0 6.47211V35.186C0 38.7604 2.89765 41.6581 6.47209 41.6581H175.612C178.092 41.6581 180.355 40.24 181.436 38.0073L195.345 9.29347C197.427 4.9954 194.296 0 189.52 0Z" fill="black"/>
<defs>
<clipPath id="bgblur_0_389_72_clip_path" transform="translate(2.94186 2.94186)"><path d="M189.52 0H6.4721C2.89766 0 0 2.89767 0 6.47211V35.186C0 38.7604 2.89765 41.6581 6.47209 41.6581H175.612C178.092 41.6581 180.355 40.24 181.436 38.0073L195.345 9.29347C197.427 4.9954 194.296 0 189.52 0Z"/>
</clipPath></defs>
</svg>
